Coordinates
nRows=415
nColumns=2
inDegrees=yes
endheader
time	ankle_angle_r	
3.65927	  9.536743	
3.69254	  9.507904	
3.72581	  9.506226	
3.75907	  9.542583	
3.79234	  9.521484	
3.8256	  9.490967	
3.85887	  9.536743	
3.89214	  9.518678	
3.9254	  9.499903	
3.95867	  9.527904	
3.99194	  9.466966	
4.0252	  9.475708	
4.05847	  9.506226	
4.09173	  9.453643	
4.125	  9.452093	
4.15827	  9.459189	
4.19153	  9.407577	
4.2248	  9.445190	
4.25806	  9.460449	
4.29133	  9.429932	
4.3246	  9.452673	
4.35786	  9.468128	
4.39113	  9.437608	
4.4244	  9.437417	
4.45766	  9.490967	
4.49093	  9.445190	
4.52419	  9.407477	
4.55746	  9.512264	
4.59073	  9.460449	
4.62399	  9.475708	
4.65726	  9.475708	
4.69052	  9.468996	
4.72379	  9.460449	
4.75706	  9.521484	
4.79032	  9.475708	
4.82359	  9.482034	
4.85685	  9.521484	
4.89012	  9.475708	
4.92339	  9.460449	
4.95665	  9.521484	
4.98992	  9.496809	
5.02319	  9.481454	
5.05645	  9.500577	
5.08972	  9.475708	
5.12298	  9.475708	
5.15625	  9.511584	
5.18952	  9.475708	
5.22278	  9.475708	
5.25605	  9.516416	
5.28931	  9.500911	
5.32258	  9.465324	
5.35585	  9.526263	
5.38911	  9.501544	
5.42238	  9.469620	
5.45565	  9.501737	
5.48891	  9.480100	
5.52218	  9.484299	
5.55544	  9.525682	
5.58871	  9.475708	
5.62198	  9.453200	
5.65524	  9.433840	
5.68851	  9.441379	
5.72177	  9.437362	
5.75504	  9.498203	
5.78831	  9.475708	
5.82157	  9.440207	
5.85484	  9.460449	
5.8881	  9.448422	
5.92137	  9.481978	
5.95464	  9.521484	
5.9879	  9.500342	
6.02117	  9.481398	
6.05444	  9.488218	
6.0877	  9.521484	
6.12097	  9.539298	
6.15423	  9.531827	
6.1875	  9.462811	
6.22077	  9.528278	
6.25403	  9.565093	
6.2873	  9.458378	
6.32056	  9.567261	
6.35383	  9.567261	
6.3871	  9.496311	
6.42036	  9.552002	
6.45363	  9.567261	
6.4869	  9.524467	
6.52016	  9.540927	
6.55343	  9.538041	
6.58669	  9.508628	
6.61996	  9.580311	
6.65323	  9.552002	
6.68649	  9.506226	
6.71976	  9.567261	
6.75302	  9.581801	
6.78629	  9.522105	
6.81956	  9.537268	
6.85282	  9.552002	
6.88609	  9.521484	
6.91935	  9.567261	
6.95262	  9.536743	
6.98589	  9.506226	
7.01915	  9.521484	
7.05242	  9.551849	
7.08569	  9.460449	
7.11895	  9.476054	
7.15222	  9.460892	
7.18548	  9.430470	
7.21875	  9.461085	
7.25202	  9.507690	
7.28528	  9.398585	
7.31855	  9.429006	
7.35181	  9.522507	
7.38508	  9.416911	
7.41835	  9.476924	
7.45161	  9.524110	
7.48488	  9.460449	
7.51815	  9.522990	
7.55141	  9.553604	
7.58468	  9.523184	
7.61794	  9.536743	
7.65121	  9.525270	
7.68448	  9.479687	
7.71774	  9.534657	
7.75101	  9.506226	
7.78427	  9.475708	
7.81754	  9.554379	
7.85081	  9.536743	
7.88407	  9.488398	
7.91734	  9.511558	
7.9506	  9.506226	
7.98387	  9.496686	
8.01714	  9.546089	
8.0504	  9.475708	
8.08367	  9.482007	
8.11694	  9.536743	
8.1502	  9.490967	
8.18347	  9.475708	
8.21673	  9.513298	
8.25	  9.502592	
8.28327	  9.490967	
8.31653	  9.510052	
8.3498	  9.475708	
8.38306	  9.490967	
8.41633	  9.513251	
8.4496	  9.460449	
8.48286	  9.453810	
8.51613	  9.506226	
8.5494	  9.429932	
8.58266	  9.408614	
8.61593	  9.454583	
8.64919	  9.409880	
8.68246	  9.399414	
8.71573	  9.414673	
8.74899	  9.409590	
8.78226	  9.445190	
8.81552	  9.475708	
8.84879	  9.429932	
8.88206	  9.404884	
8.91532	  9.506226	
8.94859	  9.502294	
8.98185	  9.439430	
9.01512	  9.438100	
9.04839	  9.429932	
9.08165	  9.469658	
9.11492	  9.500079	
9.14819	  9.460449	
9.18145	  9.466789	
9.21472	  9.521484	
9.24798	  9.490967	
9.28125	  9.469078	
9.31452	  9.536743	
9.34778	  9.484143	
9.38105	  9.484046	
9.41431	  9.514467	
9.44758	  9.491998	
9.48085	  9.521484	
9.51411	  9.536743	
9.54738	  9.475708	
9.58065	  9.529243	
9.61391	  9.544340	
9.64718	  9.483273	
9.68044	  9.521162	
9.71371	  9.514112	
9.74698	  9.498241	
9.78024	  9.528663	
9.81351	  9.513307	
9.84677	  9.506226	
9.88004	  9.545114	
9.91331	  9.490967	
9.94657	  9.482403	
9.97984	  9.519422	
10.0131	  9.497468	
10.0464	  9.503777	
10.0796	  9.484659	
10.1129	  9.466660	
10.1462	  9.451305	
10.1794	  9.521484	
10.2127	  9.441774	
10.246	  9.454624	
10.2792	  9.511953	
10.3125	  9.502230	
10.3458	  9.431276	
10.379	  9.500788	
10.4123	  9.516143	
10.4456	  9.480478	
10.4788	  9.490967	
10.5121	  9.536743	
10.5454	  9.521484	
10.5786	  9.547144	
10.6119	  9.536743	
10.6452	  9.496897	
10.6784	  9.536743	
10.7117	  9.552002	
10.745	  9.506226	
10.7782	  9.536743	
10.8115	  9.567261	
10.8448	  9.525569	
10.878	  9.552002	
10.9113	  9.559479	
10.9446	  9.506226	
10.9778	  9.540441	
11.0111	  9.560060	
11.0444	  9.506226	
11.0776	  9.548594	
11.1109	  9.575898	
11.1442	  9.515057	
11.1774	  9.533626	
11.2107	  9.545960	
11.244	  9.509150	
11.2772	  9.521484	
11.3105	  9.503495	
11.3437	  9.490967	
11.377	  9.549464	
11.4103	  9.519044	
11.4435	  9.486279	
11.4768	  9.532248	
11.5101	  9.517183	
11.5433	  9.462503	
11.5766	  9.519527	
11.6099	  9.462310	
11.6431	  9.472180	
11.6764	  9.460449	
11.7097	  9.367326	
11.7429	  9.394993	
11.7762	  9.445190	
11.8095	  9.457889	
11.8427	  9.456898	
11.876	  9.459362	
11.9093	  9.430922	
11.9425	  9.474814	
11.9758	  9.445988	
12.0091	  9.444490	
12.0423	  9.475708	
12.0756	  9.520978	
12.1089	  9.460859	
12.1421	  9.445817	
12.1754	  9.521484	
12.2087	  9.460810	
12.2419	  9.475684	
12.2752	  9.521411	
12.3085	  9.490967	
12.3417	  9.475975	
12.375	  9.506589	
12.4083	  9.474788	
12.4415	  9.475708	
12.4748	  9.550695	
12.5081	  9.489467	
12.5413	  9.446037	
12.5746	  9.535800	
12.6079	  9.490967	
12.6411	  9.460449	
12.6744	  9.521484	
12.7077	  9.506226	
12.7409	  9.488113	
12.7742	  9.492491	
12.8075	  9.478949	
12.8407	  9.473991	
12.874	  9.525111	
12.9073	  9.456629	
12.9405	  9.418687	
12.9738	  9.521484	
13.0071	  9.519284	
13.0403	  9.486373	
13.0736	  9.470921	
13.1069	  9.490967	
13.1401	  9.534156	
13.1734	  9.518801	
13.2067	  9.470147	
13.2399	  9.469954	
13.2732	  9.460449	
13.3065	  9.494038	
13.3397	  9.463616	
13.373	  9.457186	
13.4062	  9.418034	
13.4395	  9.445190	
13.4728	  9.452298	
13.506	  9.483665	
13.5393	  9.490967	
13.5726	  9.460449	
13.6058	  9.418613	
13.6391	  9.445190	
13.6724	  9.468718	
13.7056	  9.460449	
13.7389	  9.447467	
13.7722	  9.408262	
13.8054	  9.445190	
13.8387	  9.496990	
13.872	  9.490967	
13.9052	  9.404225	
13.9385	  9.511133	
13.9718	  9.490967	
14.005	  9.480765	
14.0383	  9.501028	
14.0716	  9.546708	
14.1048	  9.455058	
14.1381	  9.481195	
14.1714	  9.435516	
14.2046	  9.445190	
14.2379	  9.490967	
14.2712	  9.479218	
14.3044	  9.457132	
14.3377	  9.490967	
14.371	  9.475708	
14.4042	  9.487442	
14.4375	  9.414673	
14.4708	  9.445190	
14.504	  9.460449	
14.5373	  9.453801	
14.5706	  9.467194	
14.6038	  9.414673	
14.6371	  9.474325	
14.6704	  9.460449	
14.7036	  9.460449	
14.7369	  9.506226	
14.7702	  9.505616	
14.8034	  9.467871	
14.8367	  9.506226	
14.87	  9.475650	
14.9032	  9.437479	
14.9365	  9.498775	
14.9698	  9.399414	
15.003	  9.437933	
15.0363	  9.498127	
15.0696	  9.422868	
15.1028	  9.400739	
15.1361	  9.445190	
15.1694	  9.423158	
15.2026	  9.469030	
15.2359	  9.445190	
15.2692	  9.414673	
15.3024	  9.436318	
15.3357	  9.451481	
15.369	  9.442319	
15.4022	  9.475708	
15.4355	  9.445190	
15.4687	  9.424028	
15.502	  9.441545	
15.5353	  9.494805	
15.5685	  9.454836	
15.6018	  9.450707	
15.6351	  9.460449	
15.6683	  9.465061	
15.7016	  9.414673	
15.7349	  9.490967	
15.7681	  9.450224	
15.8014	  9.424994	
15.8347	  9.414673	
15.8679	  9.435703	
15.9012	  9.451156	
15.9345	  9.495517	
15.9677	  9.384155	
16.001	  9.405959	
16.0343	  9.438452	
16.0675	  9.471544	
16.1008	  9.449257	
16.1341	  9.460449	
16.1673	  9.460449	
16.2006	  9.353638	
16.2339	  9.502545	
16.2671	  9.468541	
16.3004	  9.406387	
16.3337	  9.487576	
16.3669	  9.475708	
16.4002	  9.485297	
16.4335	  9.490967	
16.4667	  9.451197	
16.5	  9.517851	
16.5333	  9.460449	
16.5665	  9.450617	
16.5998	  9.435164	
16.6331	  9.447710	
16.6663	  9.452459	
16.6996	  9.506226	
16.7329	  9.521484	
16.7661	  9.460449	
16.7994	  9.490967	
16.8327	  9.521484	
16.8659	  9.433618	
16.8992	  9.475708	
16.9325	  9.472409	
16.9657	  9.460449	
16.999	  9.490967	
17.0323	  9.490967	
17.0655	  9.476971	
17.0988	  9.552002	
17.1321	  9.537812	
17.1653	  9.506226	
17.1986	  9.551126	
17.2319	  9.580961	
17.2651	  9.536060	
17.2984	  9.536743	
17.3317	  9.552491	
17.3649	  9.521877	
17.3982	  9.552594	
17.4315	  9.536942	
